<svg width="9" height="7" viewBox="0 0 9 7" fill="none" xmlns="http://www.w3.org/2000/svg">
<path d="M0.0230618 1.6342C0.0230618 1.56277 0.0587769 1.48241 0.112348 1.42884L0.558777 0.982413C0.612348 0.928842 0.692705 0.893127 0.764133 0.893127C0.835562 0.893127 0.915919 0.928842 0.969491 0.982413L4.47842 4.49134L7.98735 0.982413C8.04092 0.928842 8.12128 0.893127 8.19271 0.893127C8.27306 0.893127 8.34449 0.928842 8.39806 0.982413L8.84449 1.42884C8.89806 1.48241 8.93378 1.56277 8.93378 1.6342C8.93378 1.70563 8.89806 1.78598 8.84449 1.83956L4.68378 6.00027C4.63021 6.05384 4.54985 6.08956 4.47842 6.08956C4.40699 6.08956 4.32663 6.05384 4.27306 6.00027L0.112348 1.83956C0.0587769 1.78598 0.0230618 1.70563 0.0230618 1.6342Z" fill="white"/>
</svg>
